<svg width="40" height="40" viewBox="0 0 40 40" fill="none" xmlns="http://www.w3.org/2000/svg">
<g id="Notice-40">
<path id="Exclude" d="M20 2.5C29.665 2.5 37.5 10.335 37.5 20C37.5 29.665 29.665 37.5 20 37.5C10.335 37.5 2.5 29.665 2.5 20C2.5 10.335 10.335 2.5 20 2.5ZM20 25.0586C18.8495 25.0586 17.9172 25.9912 17.917 27.1416C17.917 28.2922 18.8494 29.2256 20 29.2256C21.1506 29.2256 22.083 28.2922 22.083 27.1416C22.0828 25.9912 21.1505 25.0586 20 25.0586ZM20 10.834C19.0795 10.834 18.333 11.5805 18.333 12.501V20.834C18.333 21.7545 19.0795 22.501 20 22.501C20.9204 22.5009 21.667 21.7544 21.667 20.834V12.501C21.667 11.5805 20.9204 10.834 20 10.834Z" fill="#1B1A2A"/>
</g>
</svg>
